<?xml version="1.0" encoding="UTF-8" standalone="no"?>
<!DOCTYPE svg PUBLIC "-//W3C//DTD SVG 1.1//EN" "http://www.w3.org/Graphics/SVG/1.1/DTD/svg11.dtd">
<svg xmlns="http://www.w3.org/2000/svg" version="1.1" viewBox="0.00 0.00 192.00 192.00">
<g stroke-width="2.00" fill="none" stroke-linecap="butt">
<path stroke="#808080" vector-effect="non-scaling-stroke" d="
  M 110.19 128.09
  C 111.12 127.39 112.10 126.78 112.69 125.73
  C 114.03 123.34 116.61 121.59 117.03 118.78
  C 117.26 117.28 118.68 115.06 120.48 115.41
  Q 121.69 115.65 122.93 115.24
  C 125.70 114.32 128.41 113.43 129.93 110.70
  Q 132.90 105.36 135.26 100.89
  Q 137.02 97.57 135.99 93.87
  Q 135.70 92.82 134.62 92.61
  Q 133.83 92.46 133.83 93.26
  Q 133.83 93.50 133.69 93.67
  Q 133.35 94.11 132.80 94.18
  Q 131.50 94.35 130.46 95.08
  Q 130.04 95.37 129.64 95.06
  Q 129.30 94.79 129.83 94.20
  A 0.81 0.79 -64.6 0 1 130.51 93.95
  Q 131.86 94.11 132.66 93.18
  Q 133.17 92.59 132.39 92.51
  L 129.04 92.18
  Q 128.53 92.13 128.15 92.49
  L 125.47 95.12
  A 0.84 0.84 0.0 0 1 124.05 94.46
  C 124.39 90.00 127.05 86.44 124.39 82.11
  Q 123.96 81.41 124.14 80.61
  Q 124.94 77.02 124.75 73.39
  A 1.38 1.35 -66.6 0 0 124.44 72.58
  Q 120.50 67.75 114.58 67.76
  C 112.76 67.76 111.41 66.44 109.64 66.87
  C 105.73 67.80 101.42 71.40 97.64 67.60
  Q 95.15 65.08 93.13 64.37
  Q 88.78 62.83 84.24 61.14
  C 81.35 60.07 78.41 60.49 79.16 64.44
  C 79.74 67.50 78.04 70.98 76.71 73.75
  Q 76.23 74.75 77.31 74.52
  L 78.31 74.30
  Q 78.95 74.17 79.58 74.38
  Q 85.22 76.33 90.00 78.71
  Q 92.10 79.75 93.47 81.84
  C 94.84 83.95 93.10 87.19 91.98 89.05
  C 90.49 91.51 91.64 94.27 89.06 96.44
  Q 87.10 98.10 85.71 100.33
  Q 85.41 100.82 85.91 101.11
  C 88.15 102.42 88.27 105.24 90.92 105.89
  Q 94.15 106.67 97.09 107.60
  Q 98.98 108.20 97.26 109.19
  Q 96.35 109.72 95.21 109.66
  C 93.61 109.58 92.28 110.13 91.13 111.17
  A 2.55 2.54 -51.6 0 1 88.19 111.51
  C 84.88 109.66 80.61 107.86 82.84 102.98
  C 83.58 101.39 85.02 100.95 85.55 99.03
  Q 86.64 95.11 89.43 92.08
  A 1.16 1.16 0.0 0 0 89.38 90.45
  C 88.31 89.42 87.12 88.50 85.52 88.71
  C 81.22 89.25 77.51 87.12 73.82 85.01
  A 1.65 1.65 0.0 0 0 71.49 85.75
  Q 70.59 87.72 71.43 89.93
  Q 71.63 90.46 71.36 90.96
  Q 70.65 92.25 70.12 93.73
  Q 69.73 94.80 70.02 95.87
  Q 71.16 100.06 72.36 103.97
  Q 72.82 105.49 72.54 106.97
  Q 71.43 112.91 75.37 118.90
  A 1.29 1.27 32.9 0 1 75.57 119.79
  C 75.11 122.98 75.78 125.81 78.27 127.95
  C 81.00 130.30 83.09 132.87 87.03 133.12
  Q 89.90 133.30 92.26 135.10
  A 2.23 2.21 51.7 0 0 94.49 135.37
  L 102.68 131.76
  Q 102.88 131.67 102.97 131.86
  Q 103.02 131.97 102.89 132.08
  Q 98.92 135.46 94.97 136.72
  C 92.14 137.62 90.09 139.34 87.66 140.84
  C 86.12 141.79 85.11 143.21 83.33 143.70
  A 1.12 1.12 0.0 0 0 82.87 145.60
  Q 83.41 146.09 83.67 146.74
  Q 83.88 147.27 83.56 147.73
  Q 82.54 149.17 82.72 150.87
  A 0.67 0.66 -82.4 0 1 81.82 151.56
  Q 80.00 150.86 77.89 150.79
  A 1.06 1.06 0.0 0 0 77.02 152.51
  Q 78.35 154.17 80.35 155.24
  A 1.37 1.37 0.0 0 1 81.05 156.72
  L 80.99 157.01
  Q 80.89 157.53 80.37 157.42
  Q 77.17 156.74 76.49 153.87
  Q 75.40 149.28 72.40 145.49
  Q 72.02 145.01 71.53 145.37
  C 69.33 146.97 66.62 146.79 65.48 149.70
  Q 64.54 152.11 63.16 154.01
  Q 62.07 155.52 62.06 157.33
  C 62.04 159.42 61.78 162.18 63.05 163.90
  Q 66.31 168.33 69.85 173.11
  C 71.98 175.98 72.06 180.27 72.65 183.71
  A 0.23 0.23 0.0 0 0 73.02 183.85
  Q 77.34 180.52 81.48 176.80
  C 83.70 174.80 86.80 173.67 88.41 171.15
  C 89.98 168.69 91.96 166.55 92.79 163.72
  Q 94.95 156.40 101.43 151.98
  Q 104.47 149.91 106.65 146.76
  A 1.30 1.26 59.0 0 0 106.87 145.82
  Q 106.58 143.85 107.40 142.13
  Q 109.11 138.53 110.62 134.96
  Q 111.13 133.75 110.65 129.37
  Q 110.62 129.12 110.48 128.90
  Q 110.42 128.82 110.33 128.80
  Q 109.54 128.59 110.19 128.09"
/>
<path stroke="#808080" vector-effect="non-scaling-stroke" d="
  M 106.65 86.07
  C 107.74 84.09 112.77 85.45 114.53 85.87
  Q 117.21 86.51 115.01 84.85
  Q 111.85 82.47 107.20 82.27
  C 103.73 82.13 101.61 84.05 100.30 87.09
  Q 99.75 88.35 100.93 89.20
  Q 105.13 92.21 109.61 92.60
  C 111.34 92.76 112.59 93.50 114.19 94.02
  Q 115.65 94.49 116.03 93.08
  A 1.52 1.51 -68.8 0 0 115.27 91.35
  L 106.92 86.97
  Q 106.32 86.66 106.65 86.07"
/>
<path stroke="#808080" vector-effect="non-scaling-stroke" d="
  M 134.4018 96.0900
  A 1.20 0.96 -35.1 0 0 132.8680 95.9946
  A 1.20 0.96 -35.1 0 0 132.4382 97.4700
  A 1.20 0.96 -35.1 0 0 133.9720 97.5654
  A 1.20 0.96 -35.1 0 0 134.4018 96.0900"
/>
<path stroke="#808080" vector-effect="non-scaling-stroke" d="
  M 128.2484 101.6375
  A 1.21 1.05 24.8 0 0 127.5904 100.1768
  A 1.21 1.05 24.8 0 0 126.0516 100.6225
  A 1.21 1.05 24.8 0 0 126.7096 102.0832
  A 1.21 1.05 24.8 0 0 128.2484 101.6375"
/>
<path stroke="#808080" vector-effect="non-scaling-stroke" d="
  M 84.74 116.42
  Q 88.70 117.18 92.74 117.56
  Q 96.66 117.93 99.84 119.38
  A 0.73 0.73 0.0 0 0 100.82 118.99
  Q 101.03 118.45 100.62 118.06
  C 98.72 116.25 96.30 116.85 94.08 115.76
  Q 91.66 114.59 88.95 113.70
  A 2.81 2.72 76.6 0 1 87.76 112.94
  Q 86.24 111.29 84.22 112.02
  Q 83.53 112.27 82.84 112.04
  Q 80.69 111.35 78.56 110.93
  Q 77.18 110.65 76.98 112.05
  A 1.03 1.02 26.7 0 0 77.28 112.94
  L 79.95 115.51
  Q 80.37 115.92 80.38 116.50
  Q 80.39 117.24 79.88 117.77
  A 2.43 2.27 42.5 0 0 80.14 121.19
  C 83.28 123.90 86.70 123.85 90.56 124.43
  Q 91.19 124.52 91.40 123.93
  Q 91.68 123.17 91.23 122.35
  A 1.47 1.46 84.6 0 0 90.39 121.65
  Q 86.51 120.41 84.02 117.69
  Q 82.47 115.98 84.74 116.42"
/>
<path stroke="#808080" vector-effect="non-scaling-stroke" d="
  M 125.07 111.32
  Q 123.32 112.28 121.77 111.46
  Q 121.03 111.07 121.04 111.91
  Q 121.04 112.16 121.24 112.31
  Q 123.19 113.76 125.35 112.68
  Q 125.81 112.45 125.72 111.94
  L 125.67 111.61
  A 0.41 0.41 0.0 0 0 125.07 111.32"
/>
</g>
<path fill="#000000" d="
  M 164.10 192.00
  L 49.58 192.00
  Q 46.25 190.73 43.04 188.73
  Q 39.28 186.38 36.73 185.16
  Q 23.82 178.97 13.26 169.55
  Q 7.01 163.98 4.30 156.64
  A 1.11 1.09 52.4 0 1 4.42 155.65
  Q 5.53 154.00 7.43 152.99
  Q 17.06 147.87 24.09 146.61
  Q 28.89 145.74 32.78 143.97
  C 36.83 142.12 42.58 143.17 45.97 139.40
  Q 47.97 137.17 51.30 136.51
  Q 56.73 135.45 59.14 129.86
  C 62.08 123.07 63.90 115.79 62.50 108.43
  Q 61.90 105.30 62.66 102.10
  A 1.01 0.99 -64.2 0 0 62.32 101.10
  C 59.28 98.67 59.23 95.32 58.25 91.90
  Q 55.45 82.10 59.57 74.11
  Q 60.89 71.55 63.59 72.64
  A 0.69 0.69 0.0 0 0 64.53 71.95
  C 64.42 70.39 63.73 68.95 64.14 67.38
  C 64.80 64.91 64.65 62.43 65.25 59.99
  C 66.29 55.78 67.13 51.63 69.31 47.73
  C 71.96 43.00 73.30 37.37 78.93 35.05
  Q 85.77 32.23 91.98 31.91
  Q 95.06 31.75 98.05 31.48
  C 102.54 31.09 106.90 32.04 111.32 32.42
  Q 114.11 32.65 116.26 33.63
  C 118.35 34.58 120.57 35.24 122.43 36.67
  Q 132.41 44.31 136.38 56.35
  Q 137.06 58.43 137.76 60.57
  C 139.00 64.39 138.98 68.96 137.90 72.64
  C 136.79 76.41 137.59 80.00 135.87 83.63
  Q 134.33 86.89 132.92 90.41
  A 0.65 0.64 17.0 0 0 133.39 91.28
  Q 135.08 91.63 136.45 92.64
  Q 136.83 92.92 136.97 93.38
  Q 137.91 96.45 136.73 99.47
  Q 133.73 107.10 129.61 112.96
  C 127.61 115.81 123.17 116.48 119.95 117.10
  A 1.98 1.97 -85.1 0 0 118.48 118.34
  Q 116.56 123.38 114.62 127.79
  C 113.45 130.43 113.27 134.71 114.58 137.53
  C 115.33 139.12 115.20 140.86 115.89 142.50
  C 117.60 146.51 119.39 150.69 122.58 154.10
  Q 124.28 155.94 125.74 158.20
  C 127.77 161.37 131.45 163.24 134.72 165.07
  Q 137.09 166.40 139.30 168.30
  Q 150.02 177.52 161.29 185.00
  Q 162.62 185.89 163.39 187.39
  Q 165.42 191.36 164.10 192.00
  Z
  M 110.19 128.09
  C 111.12 127.39 112.10 126.78 112.69 125.73
  C 114.03 123.34 116.61 121.59 117.03 118.78
  C 117.26 117.28 118.68 115.06 120.48 115.41
  Q 121.69 115.65 122.93 115.24
  C 125.70 114.32 128.41 113.43 129.93 110.70
  Q 132.90 105.36 135.26 100.89
  Q 137.02 97.57 135.99 93.87
  Q 135.70 92.82 134.62 92.61
  Q 133.83 92.46 133.83 93.26
  Q 133.83 93.50 133.69 93.67
  Q 133.35 94.11 132.80 94.18
  Q 131.50 94.35 130.46 95.08
  Q 130.04 95.37 129.64 95.06
  Q 129.30 94.79 129.83 94.20
  A 0.81 0.79 -64.6 0 1 130.51 93.95
  Q 131.86 94.11 132.66 93.18
  Q 133.17 92.59 132.39 92.51
  L 129.04 92.18
  Q 128.53 92.13 128.15 92.49
  L 125.47 95.12
  A 0.84 0.84 0.0 0 1 124.05 94.46
  C 124.39 90.00 127.05 86.44 124.39 82.11
  Q 123.96 81.41 124.14 80.61
  Q 124.94 77.02 124.75 73.39
  A 1.38 1.35 -66.6 0 0 124.44 72.58
  Q 120.50 67.75 114.58 67.76
  C 112.76 67.76 111.41 66.44 109.64 66.87
  C 105.73 67.80 101.42 71.40 97.64 67.60
  Q 95.15 65.08 93.13 64.37
  Q 88.78 62.83 84.24 61.14
  C 81.35 60.07 78.41 60.49 79.16 64.44
  C 79.74 67.50 78.04 70.98 76.71 73.75
  Q 76.23 74.75 77.31 74.52
  L 78.31 74.30
  Q 78.95 74.17 79.58 74.38
  Q 85.22 76.33 90.00 78.71
  Q 92.10 79.75 93.47 81.84
  C 94.84 83.95 93.10 87.19 91.98 89.05
  C 90.49 91.51 91.64 94.27 89.06 96.44
  Q 87.10 98.10 85.71 100.33
  Q 85.41 100.82 85.91 101.11
  C 88.15 102.42 88.27 105.24 90.92 105.89
  Q 94.15 106.67 97.09 107.60
  Q 98.98 108.20 97.26 109.19
  Q 96.35 109.72 95.21 109.66
  C 93.61 109.58 92.28 110.13 91.13 111.17
  A 2.55 2.54 -51.6 0 1 88.19 111.51
  C 84.88 109.66 80.61 107.86 82.84 102.98
  C 83.58 101.39 85.02 100.95 85.55 99.03
  Q 86.64 95.11 89.43 92.08
  A 1.16 1.16 0.0 0 0 89.38 90.45
  C 88.31 89.42 87.12 88.50 85.52 88.71
  C 81.22 89.25 77.51 87.12 73.82 85.01
  A 1.65 1.65 0.0 0 0 71.49 85.75
  Q 70.59 87.72 71.43 89.93
  Q 71.63 90.46 71.36 90.96
  Q 70.65 92.25 70.12 93.73
  Q 69.73 94.80 70.02 95.87
  Q 71.16 100.06 72.36 103.97
  Q 72.82 105.49 72.54 106.97
  Q 71.43 112.91 75.37 118.90
  A 1.29 1.27 32.9 0 1 75.57 119.79
  C 75.11 122.98 75.78 125.81 78.27 127.95
  C 81.00 130.30 83.09 132.87 87.03 133.12
  Q 89.90 133.30 92.26 135.10
  A 2.23 2.21 51.7 0 0 94.49 135.37
  L 102.68 131.76
  Q 102.88 131.67 102.97 131.86
  Q 103.02 131.97 102.89 132.08
  Q 98.92 135.46 94.97 136.72
  C 92.14 137.62 90.09 139.34 87.66 140.84
  C 86.12 141.79 85.11 143.21 83.33 143.70
  A 1.12 1.12 0.0 0 0 82.87 145.60
  Q 83.41 146.09 83.67 146.74
  Q 83.88 147.27 83.56 147.73
  Q 82.54 149.17 82.72 150.87
  A 0.67 0.66 -82.4 0 1 81.82 151.56
  Q 80.00 150.86 77.89 150.79
  A 1.06 1.06 0.0 0 0 77.02 152.51
  Q 78.35 154.17 80.35 155.24
  A 1.37 1.37 0.0 0 1 81.05 156.72
  L 80.99 157.01
  Q 80.89 157.53 80.37 157.42
  Q 77.17 156.74 76.49 153.87
  Q 75.40 149.28 72.40 145.49
  Q 72.02 145.01 71.53 145.37
  C 69.33 146.97 66.62 146.79 65.48 149.70
  Q 64.54 152.11 63.16 154.01
  Q 62.07 155.52 62.06 157.33
  C 62.04 159.42 61.78 162.18 63.05 163.90
  Q 66.31 168.33 69.85 173.11
  C 71.98 175.98 72.06 180.27 72.65 183.71
  A 0.23 0.23 0.0 0 0 73.02 183.85
  Q 77.34 180.52 81.48 176.80
  C 83.70 174.80 86.80 173.67 88.41 171.15
  C 89.98 168.69 91.96 166.55 92.79 163.72
  Q 94.95 156.40 101.43 151.98
  Q 104.47 149.91 106.65 146.76
  A 1.30 1.26 59.0 0 0 106.87 145.82
  Q 106.58 143.85 107.40 142.13
  Q 109.11 138.53 110.62 134.96
  Q 111.13 133.75 110.65 129.37
  Q 110.62 129.12 110.48 128.90
  Q 110.42 128.82 110.33 128.80
  Q 109.54 128.59 110.19 128.09
  Z"
/>
<path fill="#ffffff" d="
  M 110.33 128.80
  Q 110.42 128.82 110.48 128.90
  Q 110.62 129.12 110.65 129.37
  Q 111.13 133.75 110.62 134.96
  Q 109.11 138.53 107.40 142.13
  Q 106.58 143.85 106.87 145.82
  A 1.30 1.26 59.0 0 1 106.65 146.76
  Q 104.47 149.91 101.43 151.98
  Q 94.95 156.40 92.79 163.72
  C 91.96 166.55 89.98 168.69 88.41 171.15
  C 86.80 173.67 83.70 174.80 81.48 176.80
  Q 77.34 180.52 73.02 183.85
  A 0.23 0.23 0.0 0 1 72.65 183.71
  C 72.06 180.27 71.98 175.98 69.85 173.11
  Q 66.31 168.33 63.05 163.90
  C 61.78 162.18 62.04 159.42 62.06 157.33
  Q 62.07 155.52 63.16 154.01
  Q 64.54 152.11 65.48 149.70
  C 66.62 146.79 69.33 146.97 71.53 145.37
  Q 72.02 145.01 72.40 145.49
  Q 75.40 149.28 76.49 153.87
  Q 77.17 156.74 80.37 157.42
  Q 80.89 157.53 80.99 157.01
  L 81.05 156.72
  A 1.37 1.37 0.0 0 0 80.35 155.24
  Q 78.35 154.17 77.02 152.51
  A 1.06 1.06 0.0 0 1 77.89 150.79
  Q 80.00 150.86 81.82 151.56
  A 0.67 0.66 -82.4 0 0 82.72 150.87
  Q 82.54 149.17 83.56 147.73
  Q 83.88 147.27 83.67 146.74
  Q 83.41 146.09 82.87 145.60
  A 1.12 1.12 0.0 0 1 83.33 143.70
  C 85.11 143.21 86.12 141.79 87.66 140.84
  C 90.09 139.34 92.14 137.62 94.97 136.72
  Q 98.92 135.46 102.89 132.08
  Q 103.02 131.97 102.97 131.86
  Q 102.88 131.67 102.68 131.76
  L 94.49 135.37
  A 2.23 2.21 51.7 0 1 92.26 135.10
  Q 89.90 133.30 87.03 133.12
  C 83.09 132.87 81.00 130.30 78.27 127.95
  C 75.78 125.81 75.11 122.98 75.57 119.79
  A 1.29 1.27 32.9 0 0 75.37 118.90
  Q 71.43 112.91 72.54 106.97
  Q 72.82 105.49 72.36 103.97
  Q 71.16 100.06 70.02 95.87
  Q 69.73 94.80 70.12 93.73
  Q 70.65 92.25 71.36 90.96
  Q 71.63 90.46 71.43 89.93
  Q 70.59 87.72 71.49 85.75
  A 1.65 1.65 0.0 0 1 73.82 85.01
  C 77.51 87.12 81.22 89.25 85.52 88.71
  C 87.12 88.50 88.31 89.42 89.38 90.45
  A 1.16 1.16 0.0 0 1 89.43 92.08
  Q 86.64 95.11 85.55 99.03
  C 85.02 100.95 83.58 101.39 82.84 102.98
  C 80.61 107.86 84.88 109.66 88.19 111.51
  A 2.55 2.54 -51.6 0 0 91.13 111.17
  C 92.28 110.13 93.61 109.58 95.21 109.66
  Q 96.35 109.72 97.26 109.19
  Q 98.98 108.20 97.09 107.60
  Q 94.15 106.67 90.92 105.89
  C 88.27 105.24 88.15 102.42 85.91 101.11
  Q 85.41 100.82 85.71 100.33
  Q 87.10 98.10 89.06 96.44
  C 91.64 94.27 90.49 91.51 91.98 89.05
  C 93.10 87.19 94.84 83.95 93.47 81.84
  Q 92.10 79.75 90.00 78.71
  Q 85.22 76.33 79.58 74.38
  Q 78.95 74.17 78.31 74.30
  L 77.31 74.52
  Q 76.23 74.75 76.71 73.75
  C 78.04 70.98 79.74 67.50 79.16 64.44
  C 78.41 60.49 81.35 60.07 84.24 61.14
  Q 88.78 62.83 93.13 64.37
  Q 95.15 65.08 97.64 67.60
  C 101.42 71.40 105.73 67.80 109.64 66.87
  C 111.41 66.44 112.76 67.76 114.58 67.76
  Q 120.50 67.75 124.44 72.58
  A 1.38 1.35 -66.6 0 1 124.75 73.39
  Q 124.94 77.02 124.14 80.61
  Q 123.96 81.41 124.39 82.11
  C 127.05 86.44 124.39 90.00 124.05 94.46
  A 0.84 0.84 0.0 0 0 125.47 95.12
  L 128.15 92.49
  Q 128.53 92.13 129.04 92.18
  L 132.39 92.51
  Q 133.17 92.59 132.66 93.18
  Q 131.86 94.11 130.51 93.95
  A 0.81 0.79 -64.6 0 0 129.83 94.20
  Q 129.30 94.79 129.64 95.06
  Q 130.04 95.37 130.46 95.08
  Q 131.50 94.35 132.80 94.18
  Q 133.35 94.11 133.69 93.67
  Q 133.83 93.50 133.83 93.26
  Q 133.83 92.46 134.62 92.61
  Q 135.70 92.82 135.99 93.87
  Q 137.02 97.57 135.26 100.89
  Q 132.90 105.36 129.93 110.70
  C 128.41 113.43 125.70 114.32 122.93 115.24
  Q 121.69 115.65 120.48 115.41
  C 118.68 115.06 117.26 117.28 117.03 118.78
  C 116.61 121.59 114.03 123.34 112.69 125.73
  C 112.10 126.78 111.12 127.39 110.19 128.09
  Q 109.54 128.59 110.33 128.80
  Z
  M 106.65 86.07
  C 107.74 84.09 112.77 85.45 114.53 85.87
  Q 117.21 86.51 115.01 84.85
  Q 111.85 82.47 107.20 82.27
  C 103.73 82.13 101.61 84.05 100.30 87.09
  Q 99.75 88.35 100.93 89.20
  Q 105.13 92.21 109.61 92.60
  C 111.34 92.76 112.59 93.50 114.19 94.02
  Q 115.65 94.49 116.03 93.08
  A 1.52 1.51 -68.8 0 0 115.27 91.35
  L 106.92 86.97
  Q 106.32 86.66 106.65 86.07
  Z
  M 134.4018 96.0900
  A 1.20 0.96 -35.1 0 0 132.8680 95.9946
  A 1.20 0.96 -35.1 0 0 132.4382 97.4700
  A 1.20 0.96 -35.1 0 0 133.9720 97.5654
  A 1.20 0.96 -35.1 0 0 134.4018 96.0900
  Z
  M 128.2484 101.6375
  A 1.21 1.05 24.8 0 0 127.5904 100.1768
  A 1.21 1.05 24.8 0 0 126.0516 100.6225
  A 1.21 1.05 24.8 0 0 126.7096 102.0832
  A 1.21 1.05 24.8 0 0 128.2484 101.6375
  Z
  M 84.74 116.42
  Q 88.70 117.18 92.74 117.56
  Q 96.66 117.93 99.84 119.38
  A 0.73 0.73 0.0 0 0 100.82 118.99
  Q 101.03 118.45 100.62 118.06
  C 98.72 116.25 96.30 116.85 94.08 115.76
  Q 91.66 114.59 88.95 113.70
  A 2.81 2.72 76.6 0 1 87.76 112.94
  Q 86.24 111.29 84.22 112.02
  Q 83.53 112.27 82.84 112.04
  Q 80.69 111.35 78.56 110.93
  Q 77.18 110.65 76.98 112.05
  A 1.03 1.02 26.7 0 0 77.28 112.94
  L 79.95 115.51
  Q 80.37 115.92 80.38 116.50
  Q 80.39 117.24 79.88 117.77
  A 2.43 2.27 42.5 0 0 80.14 121.19
  C 83.28 123.90 86.70 123.85 90.56 124.43
  Q 91.19 124.52 91.40 123.93
  Q 91.68 123.17 91.23 122.35
  A 1.47 1.46 84.6 0 0 90.39 121.65
  Q 86.51 120.41 84.02 117.69
  Q 82.47 115.98 84.74 116.42
  Z
  M 125.07 111.32
  Q 123.32 112.28 121.77 111.46
  Q 121.03 111.07 121.04 111.91
  Q 121.04 112.16 121.24 112.31
  Q 123.19 113.76 125.35 112.68
  Q 125.81 112.45 125.72 111.94
  L 125.67 111.61
  A 0.41 0.41 0.0 0 0 125.07 111.32
  Z"
/>
<path fill="#000000" d="
  M 106.92 86.97
  L 115.27 91.35
  A 1.52 1.51 -68.8 0 1 116.03 93.08
  Q 115.65 94.49 114.19 94.02
  C 112.59 93.50 111.34 92.76 109.61 92.60
  Q 105.13 92.21 100.93 89.20
  Q 99.75 88.35 100.30 87.09
  C 101.61 84.05 103.73 82.13 107.20 82.27
  Q 111.85 82.47 115.01 84.85
  Q 117.21 86.51 114.53 85.87
  C 112.77 85.45 107.74 84.09 106.65 86.07
  Q 106.32 86.66 106.92 86.97
  Z"
/>
<ellipse fill="#000000" cx="0.00" cy="0.00" transform="translate(133.42,96.78) rotate(-35.1)" rx="1.20" ry="0.96"/>
<ellipse fill="#000000" cx="0.00" cy="0.00" transform="translate(127.15,101.13) rotate(24.8)" rx="1.21" ry="1.05"/>
<path fill="#000000" d="
  M 84.74 116.42
  Q 82.47 115.98 84.02 117.69
  Q 86.51 120.41 90.39 121.65
  A 1.47 1.46 84.6 0 1 91.23 122.35
  Q 91.68 123.17 91.40 123.93
  Q 91.19 124.52 90.56 124.43
  C 86.70 123.85 83.28 123.90 80.14 121.19
  A 2.43 2.27 42.5 0 1 79.88 117.77
  Q 80.39 117.24 80.38 116.50
  Q 80.37 115.92 79.95 115.51
  L 77.28 112.94
  A 1.03 1.02 26.7 0 1 76.98 112.05
  Q 77.18 110.65 78.56 110.93
  Q 80.69 111.35 82.84 112.04
  Q 83.53 112.27 84.22 112.02
  Q 86.24 111.29 87.76 112.94
  A 2.81 2.72 76.6 0 0 88.95 113.70
  Q 91.66 114.59 94.08 115.76
  C 96.30 116.85 98.72 116.25 100.62 118.06
  Q 101.03 118.45 100.82 118.99
  A 0.73 0.73 0.0 0 1 99.84 119.38
  Q 96.66 117.93 92.74 117.56
  Q 88.70 117.18 84.74 116.42
  Z"
/>
<path fill="#000000" d="
  M 125.07 111.32
  A 0.41 0.41 0.0 0 1 125.67 111.61
  L 125.72 111.94
  Q 125.81 112.45 125.35 112.68
  Q 123.19 113.76 121.24 112.31
  Q 121.04 112.16 121.04 111.91
  Q 121.03 111.07 121.77 111.46
  Q 123.32 112.28 125.07 111.32
  Z"
/>
</svg>
